<mxfile host="app.diagrams.net" modified="2024-01-09T13:48:35.500Z" agent="Mozilla/5.0 (Windows NT 10.0; Win64; x64) AppleWebKit/537.36 (KHTML, like Gecko) Chrome/120.0.0.0 Safari/537.36" etag="stO5r3O9rnUVt1l1kgct" version="22.1.17" type="device">
  <diagram name="Page-1" id="AOG4-RMC6U4bkdCepoDA">
    <mxGraphModel dx="6681" dy="3289" grid="1" gridSize="10" guides="1" tooltips="1" connect="1" arrows="1" fold="1" page="1" pageScale="1" pageWidth="827" pageHeight="1169" math="0" shadow="0">
      <root>
        <mxCell id="0" />
        <mxCell id="1" parent="0" />
        <mxCell id="UTyGIq5Ldj3ar3_mkfxq-3" value="" style="rounded=0;whiteSpace=wrap;html=1;fillColor=#D4E1F5;shadow=0;" parent="1" vertex="1">
          <mxGeometry x="830" y="-580" width="820" height="820" as="geometry" />
        </mxCell>
        <mxCell id="P4NjeFBFRFH7a7NucA8H-2" value="" style="rounded=0;whiteSpace=wrap;html=1;fillColor=#D4E1F5;" parent="1" vertex="1">
          <mxGeometry x="910" y="350" width="500" height="760" as="geometry" />
        </mxCell>
        <mxCell id="pp4VXoaN8ffRIU0F0Fno-1" value="CGP_DIM_Article_Hierarchie_Polesante&lt;br&gt;" style="swimlane;fontStyle=0;childLayout=stackLayout;horizontal=1;startSize=26;fillColor=none;horizontalStack=0;resizeParent=1;resizeParentMax=0;resizeLast=0;collapsible=1;marginBottom=0;whiteSpace=wrap;html=1;" parent="1" vertex="1">
          <mxGeometry x="10" y="30" width="220" height="160" as="geometry" />
        </mxCell>
        <mxCell id="pp4VXoaN8ffRIU0F0Fno-3" value="AHP_ID_Hierarchie&lt;br&gt;AHP_Code_famille_pk&lt;br&gt;AHP_LIB_Famille&lt;br&gt;AHP_CODE_sous_famille_PK&lt;br&gt;AHP_LIB_sous_famille&lt;br&gt;AHP_CODE_sous_sous_famille_pk&lt;br&gt;AHP_lib_sous_sous_famille&lt;br&gt;AHP_dath_maj&lt;br&gt;" style="text;strokeColor=none;fillColor=none;align=left;verticalAlign=top;spacingLeft=4;spacingRight=4;overflow=hidden;rotatable=0;points=[[0,0.5],[1,0.5]];portConstraint=eastwest;whiteSpace=wrap;html=1;" parent="pp4VXoaN8ffRIU0F0Fno-1" vertex="1">
          <mxGeometry y="26" width="220" height="134" as="geometry" />
        </mxCell>
        <mxCell id="pp4VXoaN8ffRIU0F0Fno-5" value="CGP_DIM_Article_Polesante" style="swimlane;fontStyle=0;childLayout=stackLayout;horizontal=1;startSize=26;fillColor=none;horizontalStack=0;resizeParent=1;resizeParentMax=0;resizeLast=0;collapsible=1;marginBottom=0;whiteSpace=wrap;html=1;" parent="1" vertex="1">
          <mxGeometry x="490" y="30" width="220" height="220" as="geometry" />
        </mxCell>
        <mxCell id="pp4VXoaN8ffRIU0F0Fno-6" value="ATP_ID_Article&lt;br&gt;ATP_CODE_article_pk&lt;br&gt;ATP_LIB_article&lt;br&gt;ATP_code_lib_article&lt;br&gt;ATP_CODE_societe_pk&lt;br&gt;ATP_ID_societe&lt;br&gt;ATP_code_categorie&lt;br&gt;ATP_lib_categorie&lt;br&gt;ATP_est_supprime&lt;br&gt;ATP_est_remise&lt;br&gt;ATP_ID_hierarchie&lt;br&gt;ATP_Dath_maj" style="text;strokeColor=none;fillColor=none;align=left;verticalAlign=top;spacingLeft=4;spacingRight=4;overflow=hidden;rotatable=0;points=[[0,0.5],[1,0.5]];portConstraint=eastwest;whiteSpace=wrap;html=1;" parent="pp4VXoaN8ffRIU0F0Fno-5" vertex="1">
          <mxGeometry y="26" width="220" height="194" as="geometry" />
        </mxCell>
        <mxCell id="pp4VXoaN8ffRIU0F0Fno-7" value="CGP_DIM_SOCIETE" style="swimlane;fontStyle=0;childLayout=stackLayout;horizontal=1;startSize=26;fillColor=none;horizontalStack=0;resizeParent=1;resizeParentMax=0;resizeLast=0;collapsible=1;marginBottom=0;whiteSpace=wrap;html=1;" parent="1" vertex="1">
          <mxGeometry x="400" y="560" width="220" height="120" as="geometry" />
        </mxCell>
        <mxCell id="pp4VXoaN8ffRIU0F0Fno-8" value="Soc_id_societe&lt;br&gt;SOC_code_societe_PK&lt;br&gt;SOC_lib_societe&lt;br&gt;Soc_dath_maj&lt;br&gt;" style="text;strokeColor=none;fillColor=none;align=left;verticalAlign=top;spacingLeft=4;spacingRight=4;overflow=hidden;rotatable=0;points=[[0,0.5],[1,0.5]];portConstraint=eastwest;whiteSpace=wrap;html=1;" parent="pp4VXoaN8ffRIU0F0Fno-7" vertex="1">
          <mxGeometry y="26" width="220" height="94" as="geometry" />
        </mxCell>
        <mxCell id="pp4VXoaN8ffRIU0F0Fno-9" value="CGP_DIM_Zone_geographique" style="swimlane;fontStyle=0;childLayout=stackLayout;horizontal=1;startSize=26;fillColor=none;horizontalStack=0;resizeParent=1;resizeParentMax=0;resizeLast=0;collapsible=1;marginBottom=0;whiteSpace=wrap;html=1;" parent="1" vertex="1">
          <mxGeometry x="400" y="850" width="220" height="190" as="geometry" />
        </mxCell>
        <mxCell id="pp4VXoaN8ffRIU0F0Fno-10" value="&lt;div&gt;zne_id_zone_geo&lt;/div&gt;&lt;div&gt;zne_code_zone_geo_pk&lt;/div&gt;&lt;div&gt;zne_lib_zone_geo&lt;/div&gt;&lt;div&gt;zne_code_lib_zone_geo&lt;/div&gt;&lt;div&gt;zne_lib_chef_de_zone_geo&lt;/div&gt;&lt;div&gt;zne_code_veterinaire&lt;/div&gt;&lt;div&gt;zne_lib_veterinaire&lt;/div&gt;&lt;div&gt;zne_code_lib_veterinaire&lt;/div&gt;&lt;div&gt;zne_dath_maj&lt;/div&gt;&lt;div&gt;&lt;br&gt;&lt;/div&gt;&lt;div&gt;&lt;br&gt;&lt;/div&gt;" style="text;strokeColor=none;fillColor=none;align=left;verticalAlign=top;spacingLeft=4;spacingRight=4;overflow=hidden;rotatable=0;points=[[0,0.5],[1,0.5]];portConstraint=eastwest;whiteSpace=wrap;html=1;" parent="pp4VXoaN8ffRIU0F0Fno-9" vertex="1">
          <mxGeometry y="26" width="220" height="164" as="geometry" />
        </mxCell>
        <mxCell id="pp4VXoaN8ffRIU0F0Fno-11" value="CGP_DIM_TIERS_FARMAPRO" style="swimlane;fontStyle=0;childLayout=stackLayout;horizontal=1;startSize=26;fillColor=none;horizontalStack=0;resizeParent=1;resizeParentMax=0;resizeLast=0;collapsible=1;marginBottom=0;whiteSpace=wrap;html=1;" parent="1" vertex="1">
          <mxGeometry x="920" y="360" width="230" height="340" as="geometry" />
        </mxCell>
        <mxCell id="pp4VXoaN8ffRIU0F0Fno-12" value="&lt;div&gt;&lt;div&gt;tfa_id_tiers_farmapro&lt;/div&gt;&lt;div&gt;tfa_id_societe&lt;/div&gt;&lt;div&gt;tfa_code_societe&lt;/div&gt;&lt;div&gt;tfa_code_tiers_pk&lt;/div&gt;&lt;div&gt;tfa_lib_tiers&lt;/div&gt;&lt;div&gt;tfa_code_lib_tiers&lt;/div&gt;&lt;div&gt;tfa_adresse&lt;/div&gt;&lt;div&gt;tfa_localite&lt;/div&gt;&lt;div&gt;tfa_code_postal&lt;/div&gt;&lt;div&gt;tfa_ville&lt;/div&gt;&lt;div&gt;tfa_code_tiers_a_facturer&lt;/div&gt;&lt;div&gt;tfa_code_categorie&lt;/div&gt;&lt;div&gt;tfa_lib_categorie&lt;/div&gt;&lt;div&gt;tfa_code_pays&lt;/div&gt;&lt;div&gt;tfa_lib_pays&lt;/div&gt;&lt;div&gt;tfa_est_supprime&lt;/div&gt;&lt;div&gt;tfa_est_assujetti_tva&lt;/div&gt;&lt;div&gt;tfa_dath_maj&lt;/div&gt;&lt;/div&gt;" style="text;strokeColor=none;fillColor=none;align=left;verticalAlign=top;spacingLeft=4;spacingRight=4;overflow=hidden;rotatable=0;points=[[0,0.5],[1,0.5]];portConstraint=eastwest;whiteSpace=wrap;html=1;" parent="pp4VXoaN8ffRIU0F0Fno-11" vertex="1">
          <mxGeometry y="26" width="230" height="314" as="geometry" />
        </mxCell>
        <mxCell id="pp4VXoaN8ffRIU0F0Fno-13" value="CGP_DIM_TIERS_COOPERL" style="swimlane;fontStyle=0;childLayout=stackLayout;horizontal=1;startSize=26;fillColor=none;horizontalStack=0;resizeParent=1;resizeParentMax=0;resizeLast=0;collapsible=1;marginBottom=0;whiteSpace=wrap;html=1;" parent="1" vertex="1">
          <mxGeometry x="1170" y="360" width="230" height="340" as="geometry" />
        </mxCell>
        <mxCell id="pp4VXoaN8ffRIU0F0Fno-14" value="&lt;div&gt;tco_id_tiers_cooperl&lt;/div&gt;&lt;div&gt;tco_id_societe&lt;/div&gt;&lt;div&gt;tco_code_societe&lt;/div&gt;&lt;div&gt;tco_code_tiers_pk&lt;/div&gt;&lt;div&gt;tco_lib_tiers&lt;/div&gt;&lt;div&gt;tco_code_lib_tiers&lt;/div&gt;&lt;div&gt;tco_indicatif_marquage&lt;/div&gt;&lt;div&gt;tco_adresse&lt;/div&gt;&lt;div&gt;tco_localite&lt;/div&gt;&lt;div&gt;tco_code_postal&lt;/div&gt;&lt;div&gt;tco_ville&lt;/div&gt;&lt;div&gt;tco_code_tiers_a_facturer&lt;/div&gt;&lt;div&gt;tco_code_categorie&lt;/div&gt;&lt;div&gt;tco_lib_categorie&lt;/div&gt;&lt;div&gt;tco_code_pays&lt;/div&gt;&lt;div&gt;tco_lib_pays&lt;/div&gt;&lt;div&gt;tco_zne_id_zone_geo&lt;/div&gt;&lt;div&gt;tco_zne_code_zone_geo_pk&lt;/div&gt;&lt;div&gt;tco_est_supprime&lt;/div&gt;&lt;div&gt;tco_est_assujetti_tva&lt;/div&gt;&lt;div&gt;tco_dath_maj&lt;/div&gt;" style="text;strokeColor=none;fillColor=none;align=left;verticalAlign=top;spacingLeft=4;spacingRight=4;overflow=hidden;rotatable=0;points=[[0,0.5],[1,0.5]];portConstraint=eastwest;whiteSpace=wrap;html=1;" parent="pp4VXoaN8ffRIU0F0Fno-13" vertex="1">
          <mxGeometry y="26" width="230" height="314" as="geometry" />
        </mxCell>
        <mxCell id="pp4VXoaN8ffRIU0F0Fno-15" value="CGP_DIM_client_polesante" style="swimlane;fontStyle=0;childLayout=stackLayout;horizontal=1;startSize=26;fillColor=none;horizontalStack=0;resizeParent=1;resizeParentMax=0;resizeLast=0;collapsible=1;marginBottom=0;whiteSpace=wrap;html=1;" parent="1" vertex="1">
          <mxGeometry x="1050" y="750" width="230" height="350" as="geometry" />
        </mxCell>
        <mxCell id="pp4VXoaN8ffRIU0F0Fno-16" value="&lt;div&gt;clp_id_client&lt;/div&gt;&lt;div&gt;clp_id_societe&lt;/div&gt;&lt;div&gt;clp_code_societe_pk&lt;/div&gt;&lt;div&gt;clp_code_client_pk&lt;/div&gt;&lt;div&gt;clp_lib_client&lt;/div&gt;&lt;div&gt;clp_code_lib_client&lt;/div&gt;&lt;div&gt;clp_indicatif_marquage&lt;/div&gt;&lt;div&gt;clp_adresse&lt;/div&gt;&lt;div&gt;clp_localite&lt;/div&gt;&lt;div&gt;clp_code_postal&lt;/div&gt;&lt;div&gt;clp_ville&lt;/div&gt;&lt;div&gt;clp_code_client_a_facturer&lt;/div&gt;&lt;div&gt;clp_lib_categorie&lt;/div&gt;&lt;div&gt;clp_code_pays&lt;/div&gt;&lt;div&gt;clp_lib_pays&lt;/div&gt;&lt;div&gt;clp_clp_id_zone_geo&lt;/div&gt;&lt;div&gt;clp_code_zone_geo&lt;/div&gt;&lt;div&gt;clp_est_supprime&lt;/div&gt;&lt;div&gt;clp_est_assujetti_tva&lt;/div&gt;&lt;div&gt;clp_dath_maj&lt;/div&gt;" style="text;strokeColor=none;fillColor=none;align=left;verticalAlign=top;spacingLeft=4;spacingRight=4;overflow=hidden;rotatable=0;points=[[0,0.5],[1,0.5]];portConstraint=eastwest;whiteSpace=wrap;html=1;" parent="pp4VXoaN8ffRIU0F0Fno-15" vertex="1">
          <mxGeometry y="26" width="230" height="324" as="geometry" />
        </mxCell>
        <mxCell id="pp4VXoaN8ffRIU0F0Fno-17" value="CGP_DIM_Adherent_technicien" style="swimlane;fontStyle=0;childLayout=stackLayout;horizontal=1;startSize=26;fillColor=none;horizontalStack=0;resizeParent=1;resizeParentMax=0;resizeLast=0;collapsible=1;marginBottom=0;whiteSpace=wrap;html=1;" parent="1" vertex="1">
          <mxGeometry x="-30" y="325" width="230" height="180" as="geometry" />
        </mxCell>
        <mxCell id="pp4VXoaN8ffRIU0F0Fno-18" value="&lt;div&gt;adt_id_adherent_technicien&lt;/div&gt;&lt;div&gt;adt_code_adherent_pk&lt;/div&gt;&lt;div&gt;adt_code_activite&lt;/div&gt;&lt;div&gt;adt_code_technicien&lt;/div&gt;&lt;div&gt;adt_id_societe&lt;/div&gt;&lt;div&gt;adt_code_societe_pk&lt;/div&gt;&lt;div&gt;adt_dath_maj&lt;/div&gt;&lt;div&gt;&lt;br&gt;&lt;/div&gt;" style="text;strokeColor=none;fillColor=none;align=left;verticalAlign=top;spacingLeft=4;spacingRight=4;overflow=hidden;rotatable=0;points=[[0,0.5],[1,0.5]];portConstraint=eastwest;whiteSpace=wrap;html=1;" parent="pp4VXoaN8ffRIU0F0Fno-17" vertex="1">
          <mxGeometry y="26" width="230" height="154" as="geometry" />
        </mxCell>
        <mxCell id="pp4VXoaN8ffRIU0F0Fno-19" value="CGP_DIM_technicien" style="swimlane;fontStyle=0;childLayout=stackLayout;horizontal=1;startSize=26;fillColor=none;horizontalStack=0;resizeParent=1;resizeParentMax=0;resizeLast=0;collapsible=1;marginBottom=0;whiteSpace=wrap;html=1;" parent="1" vertex="1">
          <mxGeometry x="-310" y="290" width="230" height="220" as="geometry" />
        </mxCell>
        <mxCell id="pp4VXoaN8ffRIU0F0Fno-20" value="&lt;div&gt;&lt;div&gt;tec_id_technicien&lt;/div&gt;&lt;div&gt;tec_code_technicien_pk&lt;/div&gt;&lt;div&gt;tec_nom_technicien&lt;/div&gt;&lt;div&gt;tec_code_site_rattachement&lt;/div&gt;&lt;div&gt;tec_code_activite_1&lt;/div&gt;&lt;div&gt;tec_code_activite_2&lt;/div&gt;&lt;div&gt;tec_code_activite_3&lt;/div&gt;&lt;div&gt;tec_code_activite_4&lt;/div&gt;&lt;div&gt;tec_tel_portable&lt;/div&gt;&lt;div&gt;tec_adresse_email&lt;/div&gt;&lt;div&gt;tec_profil_supprime&lt;/div&gt;&lt;div&gt;tec_dath_maj&lt;/div&gt;&lt;/div&gt;" style="text;strokeColor=none;fillColor=none;align=left;verticalAlign=top;spacingLeft=4;spacingRight=4;overflow=hidden;rotatable=0;points=[[0,0.5],[1,0.5]];portConstraint=eastwest;whiteSpace=wrap;html=1;" parent="pp4VXoaN8ffRIU0F0Fno-19" vertex="1">
          <mxGeometry y="26" width="230" height="194" as="geometry" />
        </mxCell>
        <mxCell id="pp4VXoaN8ffRIU0F0Fno-21" value="CGP_DIM_Technicien_Aliments_Bovins" style="swimlane;fontStyle=0;childLayout=stackLayout;horizontal=1;startSize=26;fillColor=none;horizontalStack=0;resizeParent=1;resizeParentMax=0;resizeLast=0;collapsible=1;marginBottom=0;whiteSpace=wrap;html=1;" parent="1" vertex="1">
          <mxGeometry x="140" y="1330" width="230" height="210" as="geometry" />
        </mxCell>
        <mxCell id="pp4VXoaN8ffRIU0F0Fno-22" value="&lt;div&gt;tab_id_technicien_aliments_bovins&lt;/div&gt;&lt;div&gt;tab_code_adherent_pk&lt;/div&gt;&lt;div&gt;tab_id_adherent_technicien&lt;/div&gt;&lt;div&gt;tab_code_technicien_pk&lt;/div&gt;&lt;div&gt;tab_nom_technicien&lt;/div&gt;&lt;div&gt;tab_code_site_rattachement&lt;/div&gt;&lt;div&gt;tab_tel_portable&lt;/div&gt;&lt;div&gt;tab_adresse_email&lt;/div&gt;&lt;div&gt;tab_code_activite&lt;/div&gt;&lt;div&gt;tab_lib_activite&lt;/div&gt;&lt;div&gt;tab_dath_maj&lt;/div&gt;&lt;div&gt;&lt;br&gt;&lt;/div&gt;" style="text;strokeColor=none;fillColor=none;align=left;verticalAlign=top;spacingLeft=4;spacingRight=4;overflow=hidden;rotatable=0;points=[[0,0.5],[1,0.5]];portConstraint=eastwest;whiteSpace=wrap;html=1;" parent="pp4VXoaN8ffRIU0F0Fno-21" vertex="1">
          <mxGeometry y="26" width="230" height="184" as="geometry" />
        </mxCell>
        <mxCell id="pp4VXoaN8ffRIU0F0Fno-25" value="CGP_FCT_FACTURATION_VENTES_ENTETE_POLESANTE" style="swimlane;fontStyle=0;childLayout=stackLayout;horizontal=1;startSize=26;fillColor=none;horizontalStack=0;resizeParent=1;resizeParentMax=0;resizeLast=0;collapsible=1;marginBottom=0;whiteSpace=wrap;html=1;" parent="1" vertex="1">
          <mxGeometry x="835" y="-560" width="350" height="240" as="geometry" />
        </mxCell>
        <mxCell id="pp4VXoaN8ffRIU0F0Fno-26" value="&lt;div&gt;&lt;div&gt;&lt;div&gt;soc_id_societe&lt;/div&gt;&lt;div&gt;code_societe_pk&lt;/div&gt;&lt;div&gt;num_facture_pk&lt;/div&gt;&lt;div&gt;mois_comptable&lt;/div&gt;&lt;div&gt;annee_comptable&lt;/div&gt;&lt;div&gt;date_facture&lt;/div&gt;&lt;div&gt;clp_id_client&lt;/div&gt;&lt;div&gt;code_client&lt;/div&gt;&lt;div&gt;mtt_hors_taxe&lt;/div&gt;&lt;div&gt;mtt_tva&lt;/div&gt;&lt;div&gt;mtt_toutes_taxes_comprises&lt;/div&gt;&lt;div&gt;mode_reglement&lt;/div&gt;&lt;div&gt;date_echeance&lt;/div&gt;&lt;div&gt;dath_maj&lt;/div&gt;&lt;/div&gt;&lt;/div&gt;" style="text;strokeColor=none;fillColor=none;align=left;verticalAlign=top;spacingLeft=4;spacingRight=4;overflow=hidden;rotatable=0;points=[[0,0.5],[1,0.5]];portConstraint=eastwest;whiteSpace=wrap;html=1;" parent="pp4VXoaN8ffRIU0F0Fno-25" vertex="1">
          <mxGeometry y="26" width="350" height="214" as="geometry" />
        </mxCell>
        <mxCell id="pp4VXoaN8ffRIU0F0Fno-27" value="CGP_FCT_FACTURATION_VENTES_DETAIL_POLESANTE" style="swimlane;fontStyle=0;childLayout=stackLayout;horizontal=1;startSize=26;fillColor=none;horizontalStack=0;resizeParent=1;resizeParentMax=0;resizeLast=0;collapsible=1;marginBottom=0;whiteSpace=wrap;html=1;swimlaneLine=0;swimlaneFillColor=none;" parent="1" vertex="1">
          <mxGeometry x="1290" y="-560" width="350" height="240" as="geometry" />
        </mxCell>
        <mxCell id="pp4VXoaN8ffRIU0F0Fno-28" value="&lt;div&gt;num_adherent&lt;/div&gt;&lt;div&gt;num_facture_PK&lt;/div&gt;&lt;div&gt;code_article&lt;/div&gt;&lt;div&gt;date_livraison&lt;/div&gt;&lt;div&gt;num_bon&lt;/div&gt;&lt;div&gt;quantite&lt;/div&gt;&lt;div&gt;poids&lt;/div&gt;&lt;div&gt;prix_unitaire&lt;/div&gt;&lt;div&gt;mtt_hors_taxe&lt;/div&gt;&lt;div&gt;taux_tva&lt;/div&gt;&lt;div&gt;est_un_avoir&lt;/div&gt;&lt;div&gt;mtt_revient&lt;/div&gt;&lt;div&gt;num_ligne&lt;/div&gt;&lt;div&gt;dath_maj&lt;/div&gt;" style="text;strokeColor=none;fillColor=none;align=left;verticalAlign=top;spacingLeft=4;spacingRight=4;overflow=hidden;rotatable=0;points=[[0,0.5],[1,0.5]];portConstraint=eastwest;whiteSpace=wrap;html=1;" parent="pp4VXoaN8ffRIU0F0Fno-27" vertex="1">
          <mxGeometry y="26" width="350" height="214" as="geometry" />
        </mxCell>
        <mxCell id="pp4VXoaN8ffRIU0F0Fno-31" value="" style="endArrow=classic;html=1;rounded=0;exitX=1;exitY=0.5;exitDx=0;exitDy=0;" parent="1" source="pp4VXoaN8ffRIU0F0Fno-3" target="pp4VXoaN8ffRIU0F0Fno-32" edge="1">
          <mxGeometry width="50" height="50" relative="1" as="geometry">
            <mxPoint x="310" y="135" as="sourcePoint" />
            <mxPoint x="320" y="120" as="targetPoint" />
          </mxGeometry>
        </mxCell>
        <mxCell id="pp4VXoaN8ffRIU0F0Fno-32" value="AHP_ID_hierarchie =&lt;br&gt;ATP_ID_hierarchie" style="ellipse;whiteSpace=wrap;html=1;" parent="1" vertex="1">
          <mxGeometry x="290" y="80" width="120" height="80" as="geometry" />
        </mxCell>
        <mxCell id="pp4VXoaN8ffRIU0F0Fno-33" value="" style="endArrow=classic;html=1;rounded=0;exitX=0;exitY=0.5;exitDx=0;exitDy=0;entryX=1.017;entryY=0.588;entryDx=0;entryDy=0;entryPerimeter=0;" parent="1" source="pp4VXoaN8ffRIU0F0Fno-6" target="pp4VXoaN8ffRIU0F0Fno-32" edge="1">
          <mxGeometry width="50" height="50" relative="1" as="geometry">
            <mxPoint x="380" y="205" as="sourcePoint" />
            <mxPoint x="430" y="155" as="targetPoint" />
          </mxGeometry>
        </mxCell>
        <mxCell id="pp4VXoaN8ffRIU0F0Fno-34" value="" style="endArrow=classic;html=1;rounded=0;exitX=0.5;exitY=0;exitDx=0;exitDy=0;" parent="1" source="pp4VXoaN8ffRIU0F0Fno-7" target="pp4VXoaN8ffRIU0F0Fno-35" edge="1">
          <mxGeometry width="50" height="50" relative="1" as="geometry">
            <mxPoint x="460" y="420" as="sourcePoint" />
            <mxPoint x="530" y="370" as="targetPoint" />
          </mxGeometry>
        </mxCell>
        <mxCell id="pp4VXoaN8ffRIU0F0Fno-35" value="ATP_ID_societe=&lt;br&gt;Soc_id_societe" style="ellipse;whiteSpace=wrap;html=1;fillColor=#FFFF66;" parent="1" vertex="1">
          <mxGeometry x="470" y="350" width="140" height="130" as="geometry" />
        </mxCell>
        <mxCell id="pp4VXoaN8ffRIU0F0Fno-36" value="" style="endArrow=classic;html=1;rounded=0;exitX=0.486;exitY=1.021;exitDx=0;exitDy=0;exitPerimeter=0;entryX=0.692;entryY=0.025;entryDx=0;entryDy=0;entryPerimeter=0;" parent="1" source="pp4VXoaN8ffRIU0F0Fno-6" target="pp4VXoaN8ffRIU0F0Fno-35" edge="1">
          <mxGeometry width="50" height="50" relative="1" as="geometry">
            <mxPoint x="610" y="310" as="sourcePoint" />
            <mxPoint x="660" y="260" as="targetPoint" />
          </mxGeometry>
        </mxCell>
        <mxCell id="pp4VXoaN8ffRIU0F0Fno-45" value="" style="endArrow=classic;html=1;rounded=0;exitX=1.009;exitY=0.299;exitDx=0;exitDy=0;exitPerimeter=0;entryX=0.071;entryY=0.75;entryDx=0;entryDy=0;entryPerimeter=0;" parent="1" source="pp4VXoaN8ffRIU0F0Fno-10" target="pp4VXoaN8ffRIU0F0Fno-47" edge="1">
          <mxGeometry width="50" height="50" relative="1" as="geometry">
            <mxPoint x="730" y="940" as="sourcePoint" />
            <mxPoint x="700" y="910" as="targetPoint" />
          </mxGeometry>
        </mxCell>
        <mxCell id="P4NjeFBFRFH7a7NucA8H-10" style="edgeStyle=orthogonalEdgeStyle;rounded=0;orthogonalLoop=1;jettySize=auto;html=1;" parent="1" source="pp4VXoaN8ffRIU0F0Fno-47" target="pp4VXoaN8ffRIU0F0Fno-16" edge="1">
          <mxGeometry relative="1" as="geometry">
            <Array as="points">
              <mxPoint x="950" y="915" />
              <mxPoint x="950" y="1010" />
            </Array>
          </mxGeometry>
        </mxCell>
        <mxCell id="pp4VXoaN8ffRIU0F0Fno-47" value="zne_id_zone_geo =&amp;nbsp;&lt;br&gt;clp_id_zone_geo" style="ellipse;whiteSpace=wrap;html=1;fillColor=#FFFF66;" parent="1" vertex="1">
          <mxGeometry x="670" y="860" width="180" height="110" as="geometry" />
        </mxCell>
        <mxCell id="pp4VXoaN8ffRIU0F0Fno-52" value="" style="endArrow=classic;html=1;rounded=0;exitX=0.34;exitY=1.048;exitDx=0;exitDy=0;exitPerimeter=0;" parent="1" source="pp4VXoaN8ffRIU0F0Fno-18" target="pp4VXoaN8ffRIU0F0Fno-54" edge="1">
          <mxGeometry width="50" height="50" relative="1" as="geometry">
            <mxPoint x="2395" y="730" as="sourcePoint" />
            <mxPoint x="2315" y="687" as="targetPoint" />
          </mxGeometry>
        </mxCell>
        <mxCell id="pp4VXoaN8ffRIU0F0Fno-53" value="" style="endArrow=classic;html=1;rounded=0;exitX=0.989;exitY=1.018;exitDx=0;exitDy=0;exitPerimeter=0;" parent="1" source="pp4VXoaN8ffRIU0F0Fno-20" target="pp4VXoaN8ffRIU0F0Fno-54" edge="1">
          <mxGeometry width="50" height="50" relative="1" as="geometry">
            <mxPoint x="2225" y="960.972" as="sourcePoint" />
            <mxPoint x="2325" y="940" as="targetPoint" />
          </mxGeometry>
        </mxCell>
        <mxCell id="pp4VXoaN8ffRIU0F0Fno-54" value="tec_code_technicien_pk=&lt;br&gt;adt_code_technicien&lt;br&gt;&lt;br&gt;" style="ellipse;whiteSpace=wrap;html=1;" parent="1" vertex="1">
          <mxGeometry x="-340" y="740" width="150" height="140" as="geometry" />
        </mxCell>
        <mxCell id="pp4VXoaN8ffRIU0F0Fno-55" value="" style="endArrow=classic;html=1;rounded=0;exitX=1;exitY=0.5;exitDx=0;exitDy=0;entryX=0.25;entryY=0;entryDx=0;entryDy=0;" parent="1" source="pp4VXoaN8ffRIU0F0Fno-56" target="yLDYpLFlOgjiY7SgvSHE-1" edge="1">
          <mxGeometry width="50" height="50" relative="1" as="geometry">
            <mxPoint x="2545" y="770" as="sourcePoint" />
            <mxPoint x="2595" y="720" as="targetPoint" />
          </mxGeometry>
        </mxCell>
        <mxCell id="pp4VXoaN8ffRIU0F0Fno-57" value="" style="endArrow=classic;html=1;rounded=0;exitX=1;exitY=0.5;exitDx=0;exitDy=0;entryX=0;entryY=0;entryDx=0;entryDy=0;" parent="1" source="pp4VXoaN8ffRIU0F0Fno-54" target="pp4VXoaN8ffRIU0F0Fno-56" edge="1">
          <mxGeometry width="50" height="50" relative="1" as="geometry">
            <mxPoint x="-40" y="689.4" as="sourcePoint" />
            <mxPoint x="140" y="870" as="targetPoint" />
            <Array as="points" />
          </mxGeometry>
        </mxCell>
        <mxCell id="pp4VXoaN8ffRIU0F0Fno-56" value="code activité =1" style="rhombus;whiteSpace=wrap;html=1;" parent="1" vertex="1">
          <mxGeometry x="265" y="1040" width="130" height="120" as="geometry" />
        </mxCell>
        <mxCell id="P4NjeFBFRFH7a7NucA8H-8" value="" style="strokeWidth=2;html=1;shape=mxgraph.flowchart.annotation_2;align=left;labelPosition=right;pointerEvents=1;rotation=-90;" parent="1" vertex="1">
          <mxGeometry x="1135" y="630" width="50" height="200" as="geometry" />
        </mxCell>
        <mxCell id="P4NjeFBFRFH7a7NucA8H-11" style="edgeStyle=orthogonalEdgeStyle;rounded=0;orthogonalLoop=1;jettySize=auto;html=1;" parent="1" source="pp4VXoaN8ffRIU0F0Fno-8" target="pp4VXoaN8ffRIU0F0Fno-16" edge="1">
          <mxGeometry relative="1" as="geometry">
            <Array as="points">
              <mxPoint x="835" y="633" />
              <mxPoint x="835" y="800" />
            </Array>
          </mxGeometry>
        </mxCell>
        <mxCell id="UTyGIq5Ldj3ar3_mkfxq-1" value="" style="strokeWidth=2;html=1;shape=mxgraph.flowchart.annotation_2;align=left;labelPosition=right;pointerEvents=1;rotation=-90;" parent="1" vertex="1">
          <mxGeometry x="1185" y="-375" width="100" height="220" as="geometry" />
        </mxCell>
        <mxCell id="pp4VXoaN8ffRIU0F0Fno-29" value="CGP_FCT_VENTE_facturation_POLESANTE" style="swimlane;fontStyle=0;childLayout=stackLayout;horizontal=1;startSize=26;fillColor=none;horizontalStack=0;resizeParent=1;resizeParentMax=0;resizeLast=0;collapsible=1;marginBottom=0;whiteSpace=wrap;html=1;" parent="1" vertex="1">
          <mxGeometry x="1066" y="-220" width="350" height="380" as="geometry" />
        </mxCell>
        <mxCell id="pp4VXoaN8ffRIU0F0Fno-30" value="&lt;div&gt;soc_id_societe&lt;/div&gt;&lt;div&gt;code_societe_pk&lt;/div&gt;&lt;div&gt;num_ligne&lt;/div&gt;&lt;div&gt;annee_facture&lt;/div&gt;&lt;div&gt;mois_facture&lt;/div&gt;&lt;div&gt;semaine_facture&lt;/div&gt;&lt;div&gt;trimestre_facture&lt;/div&gt;&lt;div&gt;date_facture&lt;/div&gt;&lt;div&gt;date_livraison&lt;/div&gt;&lt;div&gt;num_bon&lt;/div&gt;&lt;div&gt;num_facture_PK&lt;/div&gt;&lt;div&gt;code_client&lt;/div&gt;&lt;div&gt;mode_reglement&lt;/div&gt;&lt;div&gt;date_echeance&lt;/div&gt;&lt;div&gt;code_article&lt;/div&gt;&lt;div&gt;quantite&lt;/div&gt;&lt;div&gt;poids&lt;/div&gt;&lt;div&gt;prix_unitaire&lt;/div&gt;&lt;div&gt;mtt_hors_taxe&lt;/div&gt;&lt;div&gt;mtt_revient&lt;/div&gt;&lt;div&gt;marge&lt;/div&gt;&lt;div&gt;taux_tva&lt;/div&gt;&lt;div&gt;est_un_avoir&lt;/div&gt;&lt;div&gt;dath_maj&lt;/div&gt;" style="text;strokeColor=none;fillColor=none;align=left;verticalAlign=top;spacingLeft=4;spacingRight=4;overflow=hidden;rotatable=0;points=[[0,0.5],[1,0.5]];portConstraint=eastwest;whiteSpace=wrap;html=1;" parent="pp4VXoaN8ffRIU0F0Fno-29" vertex="1">
          <mxGeometry y="26" width="350" height="354" as="geometry" />
        </mxCell>
        <mxCell id="UTyGIq5Ldj3ar3_mkfxq-4" value="" style="endArrow=classic;html=1;rounded=0;exitX=1;exitY=0;exitDx=0;exitDy=0;entryX=0.036;entryY=0.999;entryDx=0;entryDy=0;entryPerimeter=0;" parent="1" source="UTyGIq5Ldj3ar3_mkfxq-5" target="pp4VXoaN8ffRIU0F0Fno-30" edge="1">
          <mxGeometry width="50" height="50" relative="1" as="geometry">
            <mxPoint x="710" y="530" as="sourcePoint" />
            <mxPoint x="760" y="480" as="targetPoint" />
          </mxGeometry>
        </mxCell>
        <mxCell id="UTyGIq5Ldj3ar3_mkfxq-6" value="" style="endArrow=classic;html=1;rounded=0;exitX=1;exitY=0;exitDx=0;exitDy=0;entryX=0.036;entryY=0.999;entryDx=0;entryDy=0;entryPerimeter=0;" parent="1" source="pp4VXoaN8ffRIU0F0Fno-7" target="UTyGIq5Ldj3ar3_mkfxq-5" edge="1">
          <mxGeometry width="50" height="50" relative="1" as="geometry">
            <mxPoint x="620" y="560" as="sourcePoint" />
            <mxPoint x="1079" y="160" as="targetPoint" />
          </mxGeometry>
        </mxCell>
        <mxCell id="UTyGIq5Ldj3ar3_mkfxq-5" value="Soc_id_societe=&amp;nbsp;&lt;br&gt;Soc_id_societe" style="ellipse;whiteSpace=wrap;html=1;" parent="1" vertex="1">
          <mxGeometry x="750" y="350" width="120" height="80" as="geometry" />
        </mxCell>
        <mxCell id="UTyGIq5Ldj3ar3_mkfxq-8" value="" style="endArrow=classic;html=1;rounded=0;entryX=0;entryY=0.5;entryDx=0;entryDy=0;exitX=1;exitY=0.5;exitDx=0;exitDy=0;" parent="1" source="UTyGIq5Ldj3ar3_mkfxq-10" target="pp4VXoaN8ffRIU0F0Fno-7" edge="1">
          <mxGeometry width="50" height="50" relative="1" as="geometry">
            <mxPoint x="130" y="640" as="sourcePoint" />
            <mxPoint x="180" y="590" as="targetPoint" />
          </mxGeometry>
        </mxCell>
        <mxCell id="UTyGIq5Ldj3ar3_mkfxq-11" value="" style="endArrow=classic;html=1;rounded=0;entryX=0;entryY=0.5;entryDx=0;entryDy=0;exitX=1;exitY=0.5;exitDx=0;exitDy=0;" parent="1" source="pp4VXoaN8ffRIU0F0Fno-18" target="UTyGIq5Ldj3ar3_mkfxq-10" edge="1">
          <mxGeometry width="50" height="50" relative="1" as="geometry">
            <mxPoint x="100" y="623" as="sourcePoint" />
            <mxPoint x="400" y="620" as="targetPoint" />
          </mxGeometry>
        </mxCell>
        <mxCell id="UTyGIq5Ldj3ar3_mkfxq-10" value="adt_id_societe =&amp;nbsp;&lt;br&gt;Soc_id_societe" style="ellipse;whiteSpace=wrap;html=1;" parent="1" vertex="1">
          <mxGeometry x="200" y="580" width="120" height="80" as="geometry" />
        </mxCell>
        <mxCell id="yLDYpLFlOgjiY7SgvSHE-1" value="CGP_DIM_Technicien_Aliments_Porcs" style="swimlane;fontStyle=0;childLayout=stackLayout;horizontal=1;startSize=26;fillColor=none;horizontalStack=0;resizeParent=1;resizeParentMax=0;resizeLast=0;collapsible=1;marginBottom=0;whiteSpace=wrap;html=1;" parent="1" vertex="1">
          <mxGeometry x="395" y="1330" width="230" height="206" as="geometry" />
        </mxCell>
        <mxCell id="yLDYpLFlOgjiY7SgvSHE-2" value="&lt;div&gt;tap_id_technicien_aliments_porcs&lt;/div&gt;&lt;div&gt;tap_code_adherent_pk&lt;/div&gt;&lt;div&gt;tap_id_adherent_technicien&lt;/div&gt;&lt;div&gt;tap_code_technicien_pk&lt;/div&gt;&lt;div&gt;tap_nom_technicien&lt;/div&gt;&lt;div&gt;tap_code_site_rattachement&lt;/div&gt;&lt;div&gt;tap_tel_portable&lt;/div&gt;&lt;div&gt;tap_adresse_email&lt;/div&gt;&lt;div&gt;tap_code_activite&lt;/div&gt;&lt;div&gt;tap_lib_activite&lt;/div&gt;&lt;div&gt;tap_dath_maj&lt;/div&gt;&lt;div&gt;&lt;br&gt;&lt;/div&gt;" style="text;strokeColor=none;fillColor=none;align=left;verticalAlign=top;spacingLeft=4;spacingRight=4;overflow=hidden;rotatable=0;points=[[0,0.5],[1,0.5]];portConstraint=eastwest;whiteSpace=wrap;html=1;" parent="yLDYpLFlOgjiY7SgvSHE-1" vertex="1">
          <mxGeometry y="26" width="230" height="180" as="geometry" />
        </mxCell>
        <mxCell id="yLDYpLFlOgjiY7SgvSHE-3" value="CGP_DIM_Technicien_Farmapro" style="swimlane;fontStyle=0;childLayout=stackLayout;horizontal=1;startSize=26;fillColor=none;horizontalStack=0;resizeParent=1;resizeParentMax=0;resizeLast=0;collapsible=1;marginBottom=0;whiteSpace=wrap;html=1;" parent="1" vertex="1">
          <mxGeometry x="-100" y="1330" width="230" height="210" as="geometry" />
        </mxCell>
        <mxCell id="yLDYpLFlOgjiY7SgvSHE-4" value="&lt;div&gt;tcf_id_technicien_Farmapro&lt;/div&gt;&lt;div&gt;tcf_code_adherent_pk&lt;/div&gt;&lt;div&gt;tcf_id_adherent_technicien&lt;/div&gt;&lt;div&gt;tcf_code_technicien_pk&lt;/div&gt;&lt;div&gt;tcf_nom_technicien&lt;/div&gt;&lt;div&gt;tcf_code_site_rattachement&lt;/div&gt;&lt;div&gt;tcf_tel_portable&lt;/div&gt;&lt;div&gt;tcf_adresse_email&lt;/div&gt;&lt;div&gt;tcf_code_activite&lt;/div&gt;&lt;div&gt;tcf_lib_activite&lt;/div&gt;&lt;div&gt;tcf_dath_maj&lt;/div&gt;&lt;div&gt;&lt;br&gt;&lt;/div&gt;" style="text;strokeColor=none;fillColor=none;align=left;verticalAlign=top;spacingLeft=4;spacingRight=4;overflow=hidden;rotatable=0;points=[[0,0.5],[1,0.5]];portConstraint=eastwest;whiteSpace=wrap;html=1;" parent="yLDYpLFlOgjiY7SgvSHE-3" vertex="1">
          <mxGeometry y="26" width="230" height="184" as="geometry" />
        </mxCell>
        <mxCell id="yLDYpLFlOgjiY7SgvSHE-5" value="CGP_DIM_Technicien_approvisionnement" style="swimlane;fontStyle=0;childLayout=stackLayout;horizontal=1;startSize=26;fillColor=none;horizontalStack=0;resizeParent=1;resizeParentMax=0;resizeLast=0;collapsible=1;marginBottom=0;whiteSpace=wrap;html=1;" parent="1" vertex="1">
          <mxGeometry x="-350" y="1330" width="230" height="210" as="geometry" />
        </mxCell>
        <mxCell id="yLDYpLFlOgjiY7SgvSHE-6" value="&lt;div&gt;tca_id_technicien_groupement&lt;/div&gt;&lt;div&gt;tca_code_adherent_pk&lt;/div&gt;&lt;div&gt;tca_id_adherent_technicien&lt;/div&gt;&lt;div&gt;tca_code_technicien_pk&lt;/div&gt;&lt;div&gt;tca_nom_technicien&lt;/div&gt;&lt;div&gt;tca_code_site_rattachement&lt;/div&gt;&lt;div&gt;tca_tel_portable&lt;/div&gt;&lt;div&gt;tca_adresse_email&lt;/div&gt;&lt;div&gt;tca_code_activite&lt;/div&gt;&lt;div&gt;tca_lib_activite&lt;/div&gt;&lt;div&gt;tca_dath_maj&lt;/div&gt;&lt;div&gt;&lt;br&gt;&lt;/div&gt;" style="text;strokeColor=none;fillColor=none;align=left;verticalAlign=top;spacingLeft=4;spacingRight=4;overflow=hidden;rotatable=0;points=[[0,0.5],[1,0.5]];portConstraint=eastwest;whiteSpace=wrap;html=1;" parent="yLDYpLFlOgjiY7SgvSHE-5" vertex="1">
          <mxGeometry y="26" width="230" height="184" as="geometry" />
        </mxCell>
        <mxCell id="yLDYpLFlOgjiY7SgvSHE-7" value="CGP_DIM_Technicien_Echographe" style="swimlane;fontStyle=0;childLayout=stackLayout;horizontal=1;startSize=26;fillColor=none;horizontalStack=0;resizeParent=1;resizeParentMax=0;resizeLast=0;collapsible=1;marginBottom=0;whiteSpace=wrap;html=1;" parent="1" vertex="1">
          <mxGeometry x="-610" y="1328" width="230" height="210" as="geometry" />
        </mxCell>
        <mxCell id="yLDYpLFlOgjiY7SgvSHE-8" value="&lt;div&gt;tce_id_technicien_Echographe&lt;/div&gt;&lt;div&gt;tce_code_adherent_pk&lt;/div&gt;&lt;div&gt;tce_id_adherent_technicien&lt;/div&gt;&lt;div&gt;tce_code_technicien_pk&lt;/div&gt;&lt;div&gt;tce_nom_technicien&lt;/div&gt;&lt;div&gt;tce_code_site_rattachement&lt;/div&gt;&lt;div&gt;tce_tel_portable&lt;/div&gt;&lt;div&gt;tce_adresse_email&lt;/div&gt;&lt;div&gt;tce_code_activite&lt;/div&gt;&lt;div&gt;tce_lib_activite&lt;/div&gt;&lt;div&gt;tce_dath_maj&lt;/div&gt;&lt;div&gt;&lt;br&gt;&lt;/div&gt;" style="text;strokeColor=none;fillColor=none;align=left;verticalAlign=top;spacingLeft=4;spacingRight=4;overflow=hidden;rotatable=0;points=[[0,0.5],[1,0.5]];portConstraint=eastwest;whiteSpace=wrap;html=1;" parent="yLDYpLFlOgjiY7SgvSHE-7" vertex="1">
          <mxGeometry y="26" width="230" height="184" as="geometry" />
        </mxCell>
        <mxCell id="yLDYpLFlOgjiY7SgvSHE-9" value="CGP_DIM_Technicien_Porcs" style="swimlane;fontStyle=0;childLayout=stackLayout;horizontal=1;startSize=26;fillColor=none;horizontalStack=0;resizeParent=1;resizeParentMax=0;resizeLast=0;collapsible=1;marginBottom=0;whiteSpace=wrap;html=1;" parent="1" vertex="1">
          <mxGeometry x="-860" y="1330" width="230" height="210" as="geometry" />
        </mxCell>
        <mxCell id="yLDYpLFlOgjiY7SgvSHE-10" value="&lt;div&gt;tcp_id_technicien_Porcs&lt;/div&gt;&lt;div&gt;tcp_code_adherent_pk&lt;/div&gt;&lt;div&gt;tcp_id_adherent_technicien&lt;/div&gt;&lt;div&gt;tcp_code_technicien_pk&lt;/div&gt;&lt;div&gt;tcp_nom_technicien&lt;/div&gt;&lt;div&gt;tcp_code_site_rattachement&lt;/div&gt;&lt;div&gt;tcp_tel_portable&lt;/div&gt;&lt;div&gt;tcp_adresse_email&lt;/div&gt;&lt;div&gt;tcp_code_activite&lt;/div&gt;&lt;div&gt;tcp_lib_activite&lt;/div&gt;&lt;div&gt;tcp_dath_maj&lt;/div&gt;&lt;div&gt;&lt;br&gt;&lt;/div&gt;" style="text;strokeColor=none;fillColor=none;align=left;verticalAlign=top;spacingLeft=4;spacingRight=4;overflow=hidden;rotatable=0;points=[[0,0.5],[1,0.5]];portConstraint=eastwest;whiteSpace=wrap;html=1;" parent="yLDYpLFlOgjiY7SgvSHE-9" vertex="1">
          <mxGeometry y="26" width="230" height="184" as="geometry" />
        </mxCell>
        <mxCell id="yLDYpLFlOgjiY7SgvSHE-11" value="CGP_DIM_Technicien_Qualité" style="swimlane;fontStyle=0;childLayout=stackLayout;horizontal=1;startSize=26;fillColor=none;horizontalStack=0;resizeParent=1;resizeParentMax=0;resizeLast=0;collapsible=1;marginBottom=0;whiteSpace=wrap;html=1;" parent="1" vertex="1">
          <mxGeometry x="-1130" y="1326" width="230" height="210" as="geometry" />
        </mxCell>
        <mxCell id="yLDYpLFlOgjiY7SgvSHE-12" value="&lt;div&gt;tcq_id_technicien_qualité&lt;/div&gt;&lt;div&gt;tcq_code_adherent_pk&lt;/div&gt;&lt;div&gt;tcq_id_adherent_technicien&lt;/div&gt;&lt;div&gt;tcq_code_technicien_pk&lt;/div&gt;&lt;div&gt;tcq_nom_technicien&lt;/div&gt;&lt;div&gt;tcq_code_site_rattachement&lt;/div&gt;&lt;div&gt;tcq_tel_portable&lt;/div&gt;&lt;div&gt;tcq_adresse_email&lt;/div&gt;&lt;div&gt;tcq_code_activite&lt;/div&gt;&lt;div&gt;tcq_lib_activite&lt;/div&gt;&lt;div&gt;tcq_dath_maj&lt;/div&gt;&lt;div&gt;&lt;br&gt;&lt;/div&gt;" style="text;strokeColor=none;fillColor=none;align=left;verticalAlign=top;spacingLeft=4;spacingRight=4;overflow=hidden;rotatable=0;points=[[0,0.5],[1,0.5]];portConstraint=eastwest;whiteSpace=wrap;html=1;" parent="yLDYpLFlOgjiY7SgvSHE-11" vertex="1">
          <mxGeometry y="26" width="230" height="184" as="geometry" />
        </mxCell>
        <mxCell id="yLDYpLFlOgjiY7SgvSHE-13" value="code activité =3" style="rhombus;whiteSpace=wrap;html=1;" parent="1" vertex="1">
          <mxGeometry x="140" y="1110" width="130" height="120" as="geometry" />
        </mxCell>
        <mxCell id="yLDYpLFlOgjiY7SgvSHE-14" value="" style="endArrow=classic;html=1;rounded=0;exitX=1;exitY=1;exitDx=0;exitDy=0;" parent="1" source="pp4VXoaN8ffRIU0F0Fno-54" target="yLDYpLFlOgjiY7SgvSHE-13" edge="1">
          <mxGeometry width="50" height="50" relative="1" as="geometry">
            <mxPoint x="-163" y="870" as="sourcePoint" />
            <mxPoint x="55" y="995" as="targetPoint" />
            <Array as="points" />
          </mxGeometry>
        </mxCell>
        <mxCell id="yLDYpLFlOgjiY7SgvSHE-15" value="" style="endArrow=classic;html=1;rounded=0;exitX=0.5;exitY=1;exitDx=0;exitDy=0;entryX=0.5;entryY=0;entryDx=0;entryDy=0;" parent="1" source="yLDYpLFlOgjiY7SgvSHE-13" target="pp4VXoaN8ffRIU0F0Fno-21" edge="1">
          <mxGeometry width="50" height="50" relative="1" as="geometry">
            <mxPoint x="100" y="1145" as="sourcePoint" />
            <mxPoint x="533" y="1630" as="targetPoint" />
          </mxGeometry>
        </mxCell>
        <mxCell id="yLDYpLFlOgjiY7SgvSHE-16" value="" style="endArrow=classic;html=1;rounded=0;exitX=0.722;exitY=0.993;exitDx=0;exitDy=0;exitPerimeter=0;entryX=0.5;entryY=0;entryDx=0;entryDy=0;" parent="1" source="pp4VXoaN8ffRIU0F0Fno-54" target="yLDYpLFlOgjiY7SgvSHE-17" edge="1">
          <mxGeometry width="50" height="50" relative="1" as="geometry">
            <mxPoint x="-210" y="908" as="sourcePoint" />
            <mxPoint x="50" y="942" as="targetPoint" />
            <Array as="points" />
          </mxGeometry>
        </mxCell>
        <mxCell id="yLDYpLFlOgjiY7SgvSHE-17" value="code activité =5" style="rhombus;whiteSpace=wrap;html=1;" parent="1" vertex="1">
          <mxGeometry x="-130" y="1110" width="130" height="120" as="geometry" />
        </mxCell>
        <mxCell id="yLDYpLFlOgjiY7SgvSHE-18" value="" style="endArrow=classic;html=1;rounded=0;exitX=0.5;exitY=1;exitDx=0;exitDy=0;entryX=0.5;entryY=0;entryDx=0;entryDy=0;" parent="1" source="yLDYpLFlOgjiY7SgvSHE-17" target="yLDYpLFlOgjiY7SgvSHE-3" edge="1">
          <mxGeometry width="50" height="50" relative="1" as="geometry">
            <mxPoint x="-236" y="1010" as="sourcePoint" />
            <mxPoint x="-174" y="1091" as="targetPoint" />
            <Array as="points" />
          </mxGeometry>
        </mxCell>
        <mxCell id="yLDYpLFlOgjiY7SgvSHE-19" value="code activité =4" style="rhombus;whiteSpace=wrap;html=1;" parent="1" vertex="1">
          <mxGeometry x="-290" y="1100" width="130" height="120" as="geometry" />
        </mxCell>
        <mxCell id="yLDYpLFlOgjiY7SgvSHE-20" value="" style="endArrow=classic;html=1;rounded=0;entryX=1;entryY=0;entryDx=0;entryDy=0;exitX=0;exitY=1;exitDx=0;exitDy=0;" parent="1" source="pp4VXoaN8ffRIU0F0Fno-54" target="yLDYpLFlOgjiY7SgvSHE-23" edge="1">
          <mxGeometry width="50" height="50" relative="1" as="geometry">
            <mxPoint x="-320.0000596605439" y="853.0902883592947" as="sourcePoint" />
            <mxPoint x="-342.64999999999986" y="959.9999999999999" as="targetPoint" />
            <Array as="points" />
          </mxGeometry>
        </mxCell>
        <mxCell id="yLDYpLFlOgjiY7SgvSHE-21" value="" style="endArrow=classic;html=1;rounded=0;exitX=0.436;exitY=0.936;exitDx=0;exitDy=0;entryX=0.568;entryY=-0.015;entryDx=0;entryDy=0;exitPerimeter=0;entryPerimeter=0;" parent="1" source="yLDYpLFlOgjiY7SgvSHE-19" target="yLDYpLFlOgjiY7SgvSHE-5" edge="1">
          <mxGeometry width="50" height="50" relative="1" as="geometry">
            <mxPoint x="-290" y="1090" as="sourcePoint" />
            <mxPoint x="-280" y="1160" as="targetPoint" />
            <Array as="points" />
          </mxGeometry>
        </mxCell>
        <mxCell id="yLDYpLFlOgjiY7SgvSHE-22" value="" style="endArrow=classic;html=1;rounded=0;entryX=0.685;entryY=0.158;entryDx=0;entryDy=0;entryPerimeter=0;exitX=0.5;exitY=1;exitDx=0;exitDy=0;" parent="1" source="pp4VXoaN8ffRIU0F0Fno-54" target="yLDYpLFlOgjiY7SgvSHE-19" edge="1">
          <mxGeometry width="50" height="50" relative="1" as="geometry">
            <mxPoint x="-217.13" y="853" as="sourcePoint" />
            <mxPoint x="-240.13" y="960" as="targetPoint" />
            <Array as="points" />
          </mxGeometry>
        </mxCell>
        <mxCell id="yLDYpLFlOgjiY7SgvSHE-23" value="code activité =12" style="rhombus;whiteSpace=wrap;html=1;" parent="1" vertex="1">
          <mxGeometry x="-470" y="1100" width="130" height="120" as="geometry" />
        </mxCell>
        <mxCell id="yLDYpLFlOgjiY7SgvSHE-24" value="" style="endArrow=classic;html=1;rounded=0;exitX=0;exitY=1;exitDx=0;exitDy=0;entryX=0.841;entryY=-0.012;entryDx=0;entryDy=0;entryPerimeter=0;" parent="1" source="yLDYpLFlOgjiY7SgvSHE-23" target="yLDYpLFlOgjiY7SgvSHE-7" edge="1">
          <mxGeometry width="50" height="50" relative="1" as="geometry">
            <mxPoint x="-377" y="1060" as="sourcePoint" />
            <mxPoint x="-473" y="1165" as="targetPoint" />
            <Array as="points" />
          </mxGeometry>
        </mxCell>
        <mxCell id="yLDYpLFlOgjiY7SgvSHE-25" value="" style="endArrow=classic;html=1;rounded=0;entryX=1;entryY=0;entryDx=0;entryDy=0;exitX=0;exitY=0.5;exitDx=0;exitDy=0;" parent="1" source="pp4VXoaN8ffRIU0F0Fno-54" target="yLDYpLFlOgjiY7SgvSHE-26" edge="1">
          <mxGeometry width="50" height="50" relative="1" as="geometry">
            <mxPoint x="-436" y="800" as="sourcePoint" />
            <mxPoint x="-530" y="900" as="targetPoint" />
            <Array as="points" />
          </mxGeometry>
        </mxCell>
        <mxCell id="yLDYpLFlOgjiY7SgvSHE-26" value="code activité =10&lt;br&gt;" style="rhombus;whiteSpace=wrap;html=1;" parent="1" vertex="1">
          <mxGeometry x="-750" y="1130" width="130" height="120" as="geometry" />
        </mxCell>
        <mxCell id="yLDYpLFlOgjiY7SgvSHE-27" value="" style="endArrow=classic;html=1;rounded=0;exitX=0.5;exitY=1;exitDx=0;exitDy=0;entryX=0.5;entryY=0;entryDx=0;entryDy=0;" parent="1" source="yLDYpLFlOgjiY7SgvSHE-26" target="yLDYpLFlOgjiY7SgvSHE-9" edge="1">
          <mxGeometry width="50" height="50" relative="1" as="geometry">
            <mxPoint x="-770" y="960" as="sourcePoint" />
            <mxPoint x="-930" y="1137" as="targetPoint" />
            <Array as="points" />
          </mxGeometry>
        </mxCell>
        <mxCell id="yLDYpLFlOgjiY7SgvSHE-28" value="" style="endArrow=classic;html=1;rounded=0;exitX=0.029;exitY=0.341;exitDx=0;exitDy=0;exitPerimeter=0;" parent="1" source="pp4VXoaN8ffRIU0F0Fno-54" target="yLDYpLFlOgjiY7SgvSHE-29" edge="1">
          <mxGeometry width="50" height="50" relative="1" as="geometry">
            <mxPoint x="-726" y="740" as="sourcePoint" />
            <mxPoint x="-820" y="840" as="targetPoint" />
            <Array as="points" />
          </mxGeometry>
        </mxCell>
        <mxCell id="yLDYpLFlOgjiY7SgvSHE-29" value="code activité =11" style="rhombus;whiteSpace=wrap;html=1;" parent="1" vertex="1">
          <mxGeometry x="-860" y="1090" width="130" height="120" as="geometry" />
        </mxCell>
        <mxCell id="yLDYpLFlOgjiY7SgvSHE-31" value="" style="endArrow=classic;html=1;rounded=0;exitX=0;exitY=0.5;exitDx=0;exitDy=0;entryX=0.676;entryY=-0.022;entryDx=0;entryDy=0;entryPerimeter=0;" parent="1" edge="1" target="yLDYpLFlOgjiY7SgvSHE-11" source="yLDYpLFlOgjiY7SgvSHE-29">
          <mxGeometry width="50" height="50" relative="1" as="geometry">
            <mxPoint x="-865" y="1074" as="sourcePoint" />
            <mxPoint x="-1249.9499999999998" y="1169.8000000000002" as="targetPoint" />
            <Array as="points" />
          </mxGeometry>
        </mxCell>
        <mxCell id="yLDYpLFlOgjiY7SgvSHE-33" value="CGP_DIM_Veterinaires_Bovins" style="swimlane;fontStyle=0;childLayout=stackLayout;horizontal=1;startSize=26;fillColor=none;horizontalStack=0;resizeParent=1;resizeParentMax=0;resizeLast=0;collapsible=1;marginBottom=0;whiteSpace=wrap;html=1;" parent="1" vertex="1">
          <mxGeometry x="-610" y="285" width="230" height="210" as="geometry" />
        </mxCell>
        <mxCell id="yLDYpLFlOgjiY7SgvSHE-34" value="&lt;div&gt;VTB_id_technicien_Farmapro&lt;/div&gt;&lt;div&gt;VTB_code_adherent_pk&lt;/div&gt;&lt;div&gt;VTB_id_adherent_technicien&lt;/div&gt;&lt;div&gt;VTB_code_technicien_pk&lt;/div&gt;&lt;div&gt;VTB_nom_technicien&lt;/div&gt;&lt;div&gt;VTB_code_site_rattachement&lt;/div&gt;&lt;div&gt;VTB_tel_portable&lt;/div&gt;&lt;div&gt;VTB_adresse_email&lt;/div&gt;&lt;div&gt;VTB_code_activite&lt;/div&gt;&lt;div&gt;VTB_lib_activite&lt;/div&gt;&lt;div&gt;VTB_dath_maj&lt;/div&gt;&lt;div&gt;&lt;br&gt;&lt;/div&gt;" style="text;strokeColor=none;fillColor=none;align=left;verticalAlign=top;spacingLeft=4;spacingRight=4;overflow=hidden;rotatable=0;points=[[0,0.5],[1,0.5]];portConstraint=eastwest;whiteSpace=wrap;html=1;" parent="yLDYpLFlOgjiY7SgvSHE-33" vertex="1">
          <mxGeometry y="26" width="230" height="184" as="geometry" />
        </mxCell>
        <mxCell id="yLDYpLFlOgjiY7SgvSHE-35" value="CGP_DIM_Veterinaires_Sanitaires_Volailles" style="swimlane;fontStyle=0;childLayout=stackLayout;horizontal=1;startSize=26;fillColor=none;horizontalStack=0;resizeParent=1;resizeParentMax=0;resizeLast=0;collapsible=1;marginBottom=0;whiteSpace=wrap;html=1;" parent="1" vertex="1">
          <mxGeometry x="-870" y="285" width="230" height="210" as="geometry" />
        </mxCell>
        <mxCell id="yLDYpLFlOgjiY7SgvSHE-36" value="&lt;div&gt;VSV_id_technicien_Farmapro&lt;/div&gt;&lt;div&gt;VSV_code_adherent_pk&lt;/div&gt;&lt;div&gt;VSV_id_adherent_technicien&lt;/div&gt;&lt;div&gt;VSV_code_technicien_pk&lt;/div&gt;&lt;div&gt;VSV_nom_technicien&lt;/div&gt;&lt;div&gt;VSV_code_site_rattachement&lt;/div&gt;&lt;div&gt;VSV_tel_portable&lt;/div&gt;&lt;div&gt;VSV_adresse_email&lt;/div&gt;&lt;div&gt;VSV_code_activite&lt;/div&gt;VSV&lt;span style=&quot;background-color: initial;&quot;&gt;_lib_activite&lt;/span&gt;&lt;br&gt;&lt;div&gt;VSV_dath_maj&lt;/div&gt;&lt;div&gt;&lt;br&gt;&lt;/div&gt;" style="text;strokeColor=none;fillColor=none;align=left;verticalAlign=top;spacingLeft=4;spacingRight=4;overflow=hidden;rotatable=0;points=[[0,0.5],[1,0.5]];portConstraint=eastwest;whiteSpace=wrap;html=1;" parent="yLDYpLFlOgjiY7SgvSHE-35" vertex="1">
          <mxGeometry y="26" width="230" height="184" as="geometry" />
        </mxCell>
        <mxCell id="yLDYpLFlOgjiY7SgvSHE-37" value="CGP_DIM_Veterinaires_Porcs" style="swimlane;fontStyle=0;childLayout=stackLayout;horizontal=1;startSize=26;fillColor=none;horizontalStack=0;resizeParent=1;resizeParentMax=0;resizeLast=0;collapsible=1;marginBottom=0;whiteSpace=wrap;html=1;" parent="1" vertex="1">
          <mxGeometry x="-1180" y="310" width="230" height="210" as="geometry" />
        </mxCell>
        <mxCell id="yLDYpLFlOgjiY7SgvSHE-38" value="&lt;div&gt;VEP_id_technicien_Farmapro&lt;/div&gt;&lt;div&gt;VEP_code_adherent_pk&lt;/div&gt;&lt;div&gt;VEP_id_adherent_technicien&lt;/div&gt;&lt;div&gt;VEP_code_technicien_pk&lt;/div&gt;&lt;div&gt;VEP_nom_technicien&lt;/div&gt;&lt;div&gt;VEP_code_site_rattachement&lt;/div&gt;&lt;div&gt;VEP_tel_portable&lt;/div&gt;&lt;div&gt;VEP_adresse_email&lt;/div&gt;&lt;div&gt;VEP_code_activite&lt;/div&gt;&lt;div&gt;VEP_lib_activite&lt;/div&gt;&lt;div&gt;VEP_dath_maj&lt;/div&gt;&lt;div&gt;&lt;br&gt;&lt;/div&gt;" style="text;strokeColor=none;fillColor=none;align=left;verticalAlign=top;spacingLeft=4;spacingRight=4;overflow=hidden;rotatable=0;points=[[0,0.5],[1,0.5]];portConstraint=eastwest;whiteSpace=wrap;html=1;" parent="yLDYpLFlOgjiY7SgvSHE-37" vertex="1">
          <mxGeometry y="26" width="230" height="184" as="geometry" />
        </mxCell>
        <mxCell id="yLDYpLFlOgjiY7SgvSHE-39" value="CGP_DIM_Veterinaires_Vollailes" style="swimlane;fontStyle=0;childLayout=stackLayout;horizontal=1;startSize=26;fillColor=none;horizontalStack=0;resizeParent=1;resizeParentMax=0;resizeLast=0;collapsible=1;marginBottom=0;whiteSpace=wrap;html=1;" parent="1" vertex="1">
          <mxGeometry x="-1460" y="320" width="230" height="210" as="geometry" />
        </mxCell>
        <mxCell id="yLDYpLFlOgjiY7SgvSHE-40" value="&lt;div&gt;VEV_id_technicien_Farmapro&lt;/div&gt;&lt;div&gt;VEV_code_adherent_pk&lt;/div&gt;&lt;div&gt;VEV_id_adherent_technicien&lt;/div&gt;&lt;div&gt;VEV_code_technicien_pk&lt;/div&gt;&lt;div&gt;VEV_nom_technicien&lt;/div&gt;&lt;div&gt;VEV_code_site_rattachement&lt;/div&gt;&lt;div&gt;VEV_tel_portable&lt;/div&gt;&lt;div&gt;VEV_adresse_email&lt;/div&gt;&lt;div&gt;VEV_code_activite&lt;/div&gt;&lt;div&gt;VEV_lib_activite&lt;/div&gt;&lt;div&gt;VEV_dath_maj&lt;/div&gt;&lt;div&gt;&lt;br&gt;&lt;/div&gt;" style="text;strokeColor=none;fillColor=none;align=left;verticalAlign=top;spacingLeft=4;spacingRight=4;overflow=hidden;rotatable=0;points=[[0,0.5],[1,0.5]];portConstraint=eastwest;whiteSpace=wrap;html=1;" parent="yLDYpLFlOgjiY7SgvSHE-39" vertex="1">
          <mxGeometry y="26" width="230" height="184" as="geometry" />
        </mxCell>
        <mxCell id="yLDYpLFlOgjiY7SgvSHE-41" value="CGP_DIM_Veterinaires_Sanitaires" style="swimlane;fontStyle=0;childLayout=stackLayout;horizontal=1;startSize=26;fillColor=none;horizontalStack=0;resizeParent=1;resizeParentMax=0;resizeLast=0;collapsible=1;marginBottom=0;whiteSpace=wrap;html=1;" parent="1" vertex="1">
          <mxGeometry x="-1720" y="320" width="230" height="210" as="geometry" />
        </mxCell>
        <mxCell id="yLDYpLFlOgjiY7SgvSHE-42" value="&lt;div&gt;VSV_id_technicien_Farmapro&lt;/div&gt;&lt;div&gt;VSV_code_adherent_pk&lt;/div&gt;&lt;div&gt;VSV_id_adherent_technicien&lt;/div&gt;&lt;div&gt;VSV_code_technicien_pk&lt;/div&gt;&lt;div&gt;VSV_nom_technicien&lt;/div&gt;&lt;div&gt;VSV_code_site_rattachement&lt;/div&gt;&lt;div&gt;VSV_tel_portable&lt;/div&gt;&lt;div&gt;VSV_adresse_email&lt;/div&gt;&lt;div&gt;VSV_code_activite&lt;/div&gt;&lt;div&gt;VSV_lib_activite&lt;/div&gt;&lt;div&gt;VSV_dath_maj&lt;/div&gt;&lt;div&gt;&lt;br&gt;&lt;/div&gt;" style="text;strokeColor=none;fillColor=none;align=left;verticalAlign=top;spacingLeft=4;spacingRight=4;overflow=hidden;rotatable=0;points=[[0,0.5],[1,0.5]];portConstraint=eastwest;whiteSpace=wrap;html=1;" parent="yLDYpLFlOgjiY7SgvSHE-41" vertex="1">
          <mxGeometry y="26" width="230" height="184" as="geometry" />
        </mxCell>
        <mxCell id="yLDYpLFlOgjiY7SgvSHE-43" value="" style="endArrow=classic;html=1;rounded=0;exitX=0;exitY=0.5;exitDx=0;exitDy=0;entryX=1;entryY=0.5;entryDx=0;entryDy=0;" parent="1" target="yLDYpLFlOgjiY7SgvSHE-44" edge="1" source="pp4VXoaN8ffRIU0F0Fno-54">
          <mxGeometry width="50" height="50" relative="1" as="geometry">
            <mxPoint x="-266" y="778" as="sourcePoint" />
            <mxPoint x="-600" y="760" as="targetPoint" />
            <Array as="points" />
          </mxGeometry>
        </mxCell>
        <mxCell id="yLDYpLFlOgjiY7SgvSHE-44" value="code activité =92" style="rhombus;whiteSpace=wrap;html=1;" parent="1" vertex="1">
          <mxGeometry x="-550" y="610" width="130" height="120" as="geometry" />
        </mxCell>
        <mxCell id="yLDYpLFlOgjiY7SgvSHE-45" value="" style="endArrow=classic;html=1;rounded=0;exitX=0.5;exitY=0;exitDx=0;exitDy=0;entryX=0.496;entryY=1.033;entryDx=0;entryDy=0;entryPerimeter=0;" parent="1" source="yLDYpLFlOgjiY7SgvSHE-44" target="yLDYpLFlOgjiY7SgvSHE-34" edge="1">
          <mxGeometry width="50" height="50" relative="1" as="geometry">
            <mxPoint x="-815" y="820" as="sourcePoint" />
            <mxPoint x="-1200" y="916" as="targetPoint" />
            <Array as="points" />
          </mxGeometry>
        </mxCell>
        <mxCell id="yLDYpLFlOgjiY7SgvSHE-46" value="" style="endArrow=classic;html=1;rounded=0;exitX=0;exitY=0.5;exitDx=0;exitDy=0;entryX=1;entryY=0.5;entryDx=0;entryDy=0;" parent="1" source="pp4VXoaN8ffRIU0F0Fno-54" target="yLDYpLFlOgjiY7SgvSHE-47" edge="1">
          <mxGeometry width="50" height="50" relative="1" as="geometry">
            <mxPoint x="-735.05" y="770" as="sourcePoint" />
            <mxPoint x="-740" y="850" as="targetPoint" />
            <Array as="points" />
          </mxGeometry>
        </mxCell>
        <mxCell id="yLDYpLFlOgjiY7SgvSHE-47" value="code activité =94" style="rhombus;whiteSpace=wrap;html=1;" parent="1" vertex="1">
          <mxGeometry x="-850" y="610" width="130" height="120" as="geometry" />
        </mxCell>
        <mxCell id="yLDYpLFlOgjiY7SgvSHE-48" value="" style="endArrow=classic;html=1;rounded=0;exitX=0.5;exitY=0;exitDx=0;exitDy=0;entryX=0.661;entryY=1.027;entryDx=0;entryDy=0;entryPerimeter=0;" parent="1" source="yLDYpLFlOgjiY7SgvSHE-47" target="yLDYpLFlOgjiY7SgvSHE-36" edge="1">
          <mxGeometry width="50" height="50" relative="1" as="geometry">
            <mxPoint x="-1030" y="897.1" as="sourcePoint" />
            <mxPoint x="-1414.9499999999998" y="992.9000000000002" as="targetPoint" />
            <Array as="points" />
          </mxGeometry>
        </mxCell>
        <mxCell id="yLDYpLFlOgjiY7SgvSHE-49" value="" style="endArrow=classic;html=1;rounded=0;entryX=1;entryY=0.5;entryDx=0;entryDy=0;" parent="1" source="pp4VXoaN8ffRIU0F0Fno-54" target="yLDYpLFlOgjiY7SgvSHE-50" edge="1">
          <mxGeometry width="50" height="50" relative="1" as="geometry">
            <mxPoint x="-955.05" y="922.1" as="sourcePoint" />
            <mxPoint x="-1090" y="970" as="targetPoint" />
            <Array as="points" />
          </mxGeometry>
        </mxCell>
        <mxCell id="yLDYpLFlOgjiY7SgvSHE-50" value="code activité =90" style="rhombus;whiteSpace=wrap;html=1;" parent="1" vertex="1">
          <mxGeometry x="-1110" y="700" width="130" height="120" as="geometry" />
        </mxCell>
        <mxCell id="yLDYpLFlOgjiY7SgvSHE-51" value="" style="endArrow=classic;html=1;rounded=0;exitX=0.5;exitY=0;exitDx=0;exitDy=0;entryX=0.817;entryY=1.022;entryDx=0;entryDy=0;entryPerimeter=0;" parent="1" source="yLDYpLFlOgjiY7SgvSHE-50" target="yLDYpLFlOgjiY7SgvSHE-38" edge="1">
          <mxGeometry width="50" height="50" relative="1" as="geometry">
            <mxPoint x="-1192.52" y="922.1" as="sourcePoint" />
            <mxPoint x="-1577.4699999999998" y="1017.9000000000002" as="targetPoint" />
            <Array as="points" />
          </mxGeometry>
        </mxCell>
        <mxCell id="yLDYpLFlOgjiY7SgvSHE-52" value="" style="endArrow=classic;html=1;rounded=0;entryX=0.5;entryY=1;entryDx=0;entryDy=0;" parent="1" source="pp4VXoaN8ffRIU0F0Fno-54" target="yLDYpLFlOgjiY7SgvSHE-53" edge="1">
          <mxGeometry width="50" height="50" relative="1" as="geometry">
            <mxPoint x="-850" y="940" as="sourcePoint" />
            <mxPoint x="-1540" y="1050" as="targetPoint" />
            <Array as="points" />
          </mxGeometry>
        </mxCell>
        <mxCell id="yLDYpLFlOgjiY7SgvSHE-53" value="code activité =93" style="rhombus;whiteSpace=wrap;html=1;" parent="1" vertex="1">
          <mxGeometry x="-1410" y="730" width="130" height="120" as="geometry" />
        </mxCell>
        <mxCell id="yLDYpLFlOgjiY7SgvSHE-54" value="" style="endArrow=classic;html=1;rounded=0;exitX=0.5;exitY=0;exitDx=0;exitDy=0;entryX=0.531;entryY=1.04;entryDx=0;entryDy=0;entryPerimeter=0;" parent="1" source="yLDYpLFlOgjiY7SgvSHE-53" edge="1" target="yLDYpLFlOgjiY7SgvSHE-40">
          <mxGeometry width="50" height="50" relative="1" as="geometry">
            <mxPoint x="-1675.05" y="944.2" as="sourcePoint" />
            <mxPoint x="-1650" y="650" as="targetPoint" />
            <Array as="points" />
          </mxGeometry>
        </mxCell>
        <mxCell id="yLDYpLFlOgjiY7SgvSHE-55" value="" style="endArrow=classic;html=1;rounded=0;entryX=0.654;entryY=0.967;entryDx=0;entryDy=0;entryPerimeter=0;" parent="1" source="pp4VXoaN8ffRIU0F0Fno-54" target="yLDYpLFlOgjiY7SgvSHE-56" edge="1">
          <mxGeometry width="50" height="50" relative="1" as="geometry">
            <mxPoint x="-994" y="990" as="sourcePoint" />
            <mxPoint x="-2250" y="1151" as="targetPoint" />
            <Array as="points" />
          </mxGeometry>
        </mxCell>
        <mxCell id="yLDYpLFlOgjiY7SgvSHE-56" value="code activité =91" style="rhombus;whiteSpace=wrap;html=1;" parent="1" vertex="1">
          <mxGeometry x="-1630" y="780" width="130" height="120" as="geometry" />
        </mxCell>
        <mxCell id="yLDYpLFlOgjiY7SgvSHE-57" value="" style="endArrow=classic;html=1;rounded=0;entryX=0.661;entryY=1.022;entryDx=0;entryDy=0;entryPerimeter=0;exitX=0.5;exitY=0;exitDx=0;exitDy=0;" parent="1" source="yLDYpLFlOgjiY7SgvSHE-56" target="yLDYpLFlOgjiY7SgvSHE-42" edge="1">
          <mxGeometry width="50" height="50" relative="1" as="geometry">
            <mxPoint x="-1850" y="850" as="sourcePoint" />
            <mxPoint x="-1640" y="660" as="targetPoint" />
            <Array as="points" />
          </mxGeometry>
        </mxCell>
      </root>
    </mxGraphModel>
  </diagram>
</mxfile>
